<svg xmlns="http://www.w3.org/2000/svg" width="1320" height="360" viewBox="0 0 1320 360">
<rect width="100%" height="100%" fill="#f8fafc"/>
<text x="34" y="48" font-size="28" font-family="Inter,Arial" font-weight="700" fill="#172033">T10 m1 resource acquisition: default acquire at issue</text>
<line x1="170.0" y1="78" x2="170.0" y2="280" stroke="#e2e8f0" stroke-width="1"/>
<text x="170.0" y="96" font-size="13" text-anchor="middle" fill="#4a5568">0</text>
<line x1="445.0" y1="78" x2="445.0" y2="280" stroke="#e2e8f0" stroke-width="1"/>
<text x="445.0" y="96" font-size="13" text-anchor="middle" fill="#4a5568">1</text>
<line x1="720.0" y1="78" x2="720.0" y2="280" stroke="#e2e8f0" stroke-width="1"/>
<text x="720.0" y="96" font-size="13" text-anchor="middle" fill="#4a5568">2</text>
<line x1="995.0" y1="78" x2="995.0" y2="280" stroke="#e2e8f0" stroke-width="1"/>
<text x="995.0" y="96" font-size="13" text-anchor="middle" fill="#4a5568">3</text>
<line x1="1270.0" y1="78" x2="1270.0" y2="280" stroke="#e2e8f0" stroke-width="1"/>
<text x="1270.0" y="96" font-size="13" text-anchor="middle" fill="#4a5568">4</text>
<text x="34" y="135" font-size="18" font-family="Inter,Arial" fill="#27364a">VPipe0 canonical</text>
<line x1="170" y1="142" x2="1270" y2="142" stroke="#cbd5e1" stroke-width="1"/>
<rect x="170.0" y="110" width="271.0" height="42" rx="6" fill="#2b6cb0"/>
<text x="305.5" y="135" font-size="15" text-anchor="middle" fill="white" font-family="Inter,Arial">D0</text>
<text x="170.0" y="168" font-size="12" fill="#334155" font-family="Inter,Arial">vdivu.vv v2, v0, v1</text>
<rect x="445.0" y="110" width="271.0" height="42" rx="6" fill="#2b6cb0"/>
<text x="580.5" y="135" font-size="15" text-anchor="middle" fill="white" font-family="Inter,Arial">D1</text>
<text x="445.0" y="168" font-size="12" fill="#334155" font-family="Inter,Arial">vdivu.vv v3, v0, v1</text>
<rect x="720.0" y="110" width="271.0" height="42" rx="6" fill="#2b6cb0"/>
<text x="855.5" y="135" font-size="15" text-anchor="middle" fill="white" font-family="Inter,Arial">D2</text>
<text x="720.0" y="168" font-size="12" fill="#334155" font-family="Inter,Arial">vdivu.vv v4, v0, v1</text>
<rect x="995.0" y="110" width="271.0" height="42" rx="6" fill="#2b6cb0"/>
<text x="1130.5" y="135" font-size="15" text-anchor="middle" fill="white" font-family="Inter,Arial">D3</text>
<text x="995.0" y="168" font-size="12" fill="#334155" font-family="Inter,Arial">vdivu.vv v5, v0, v1</text>
<text x="34" y="284" font-size="16" font-family="Inter,Arial" fill="#334155">The profile has no delayed AcquireAtCycles evidence.</text>
<text x="34" y="308" font-size="16" font-family="Inter,Arial" fill="#334155">LLVM sketch leaves AcquireAtCycles empty.</text>
</svg>
