<svg xmlns="http://www.w3.org/2000/svg" width="1320" height="360" viewBox="0 0 1320 360">
<rect width="100%" height="100%" fill="#f8fafc"/>
<text x="34" y="48" font-size="28" font-family="Inter,Arial" font-weight="700" fill="#172033">T11 m1 self RAW chain: Latency = 4</text>
<line x1="170.0" y1="78" x2="170.0" y2="280" stroke="#e2e8f0" stroke-width="1"/>
<text x="170.0" y="96" font-size="13" text-anchor="middle" fill="#4a5568">0</text>
<line x1="254.6" y1="78" x2="254.6" y2="280" stroke="#e2e8f0" stroke-width="1"/>
<text x="254.6" y="96" font-size="13" text-anchor="middle" fill="#4a5568">1</text>
<line x1="339.2" y1="78" x2="339.2" y2="280" stroke="#e2e8f0" stroke-width="1"/>
<text x="339.2" y="96" font-size="13" text-anchor="middle" fill="#4a5568">2</text>
<line x1="423.8" y1="78" x2="423.8" y2="280" stroke="#e2e8f0" stroke-width="1"/>
<text x="423.8" y="96" font-size="13" text-anchor="middle" fill="#4a5568">3</text>
<line x1="508.5" y1="78" x2="508.5" y2="280" stroke="#e2e8f0" stroke-width="1"/>
<text x="508.5" y="96" font-size="13" text-anchor="middle" fill="#4a5568">4</text>
<line x1="593.1" y1="78" x2="593.1" y2="280" stroke="#e2e8f0" stroke-width="1"/>
<text x="593.1" y="96" font-size="13" text-anchor="middle" fill="#4a5568">5</text>
<line x1="677.7" y1="78" x2="677.7" y2="280" stroke="#e2e8f0" stroke-width="1"/>
<text x="677.7" y="96" font-size="13" text-anchor="middle" fill="#4a5568">6</text>
<line x1="762.3" y1="78" x2="762.3" y2="280" stroke="#e2e8f0" stroke-width="1"/>
<text x="762.3" y="96" font-size="13" text-anchor="middle" fill="#4a5568">7</text>
<line x1="846.9" y1="78" x2="846.9" y2="280" stroke="#e2e8f0" stroke-width="1"/>
<text x="846.9" y="96" font-size="13" text-anchor="middle" fill="#4a5568">8</text>
<line x1="931.5" y1="78" x2="931.5" y2="280" stroke="#e2e8f0" stroke-width="1"/>
<text x="931.5" y="96" font-size="13" text-anchor="middle" fill="#4a5568">9</text>
<line x1="1016.2" y1="78" x2="1016.2" y2="280" stroke="#e2e8f0" stroke-width="1"/>
<text x="1016.2" y="96" font-size="13" text-anchor="middle" fill="#4a5568">10</text>
<line x1="1100.8" y1="78" x2="1100.8" y2="280" stroke="#e2e8f0" stroke-width="1"/>
<text x="1100.8" y="96" font-size="13" text-anchor="middle" fill="#4a5568">11</text>
<line x1="1185.4" y1="78" x2="1185.4" y2="280" stroke="#e2e8f0" stroke-width="1"/>
<text x="1185.4" y="96" font-size="13" text-anchor="middle" fill="#4a5568">12</text>
<line x1="1270.0" y1="78" x2="1270.0" y2="280" stroke="#e2e8f0" stroke-width="1"/>
<text x="1270.0" y="96" font-size="13" text-anchor="middle" fill="#4a5568">13</text>
<text x="34" y="135" font-size="18" font-family="Inter,Arial" fill="#27364a">dependent chain</text>
<line x1="170" y1="142" x2="1270" y2="142" stroke="#cbd5e1" stroke-width="1"/>
<rect x="170.0" y="110" width="80.6" height="42" rx="6" fill="#2b6cb0"/>
<text x="210.3" y="135" font-size="15" text-anchor="middle" fill="white" font-family="Inter,Arial">RAW0</text>
<text x="170.0" y="168" font-size="12" fill="#334155" font-family="Inter,Arial">vdivu.vv v2, v0, v1</text>
<rect x="508.5" y="110" width="80.6" height="42" rx="6" fill="#2b6cb0"/>
<text x="548.8" y="135" font-size="15" text-anchor="middle" fill="white" font-family="Inter,Arial">RAW1</text>
<text x="508.5" y="168" font-size="12" fill="#334155" font-family="Inter,Arial">vdivu.vv v2, v2, v1</text>
<rect x="846.9" y="110" width="80.6" height="42" rx="6" fill="#2b6cb0"/>
<text x="887.2" y="135" font-size="15" text-anchor="middle" fill="white" font-family="Inter,Arial">RAW2</text>
<text x="846.9" y="168" font-size="12" fill="#334155" font-family="Inter,Arial">vdivu.vv v2, v2, v1</text>
<rect x="1185.4" y="110" width="80.6" height="42" rx="6" fill="#2b6cb0"/>
<text x="1225.7" y="135" font-size="15" text-anchor="middle" fill="white" font-family="Inter,Arial">RAW3</text>
<text x="1185.4" y="168" font-size="12" fill="#334155" font-family="Inter,Arial">vdivu.vv v2, v2, v1</text>
<text x="34" y="284" font-size="16" font-family="Inter,Arial" fill="#334155">Dependent vdivu.vv issues at +4 cycle intervals.</text>
<text x="34" y="308" font-size="16" font-family="Inter,Arial" fill="#334155">The inferred LLVM Latency is 4.</text>
</svg>
