<svg xmlns="http://www.w3.org/2000/svg" width="1800" height="458" viewBox="0 0 1800 458">
<rect width="100%" height="100%" fill="#f8fafc"/>
<text x="34" y="48" font-size="28" font-family="Inter,Arial" font-weight="700" fill="#172033">T10 LMUL scaling: release m1/m2/m4 = 1/2/4</text>
<line x1="170.0" y1="78" x2="170.0" y2="378" stroke="#e2e8f0" stroke-width="1"/>
<text x="170.0" y="96" font-size="13" text-anchor="middle" fill="#4a5568">0</text>
<line x1="291.5" y1="78" x2="291.5" y2="378" stroke="#e2e8f0" stroke-width="1"/>
<text x="291.5" y="96" font-size="13" text-anchor="middle" fill="#4a5568">1</text>
<line x1="413.1" y1="78" x2="413.1" y2="378" stroke="#e2e8f0" stroke-width="1"/>
<text x="413.1" y="96" font-size="13" text-anchor="middle" fill="#4a5568">2</text>
<line x1="534.6" y1="78" x2="534.6" y2="378" stroke="#e2e8f0" stroke-width="1"/>
<text x="534.6" y="96" font-size="13" text-anchor="middle" fill="#4a5568">3</text>
<line x1="656.2" y1="78" x2="656.2" y2="378" stroke="#e2e8f0" stroke-width="1"/>
<text x="656.2" y="96" font-size="13" text-anchor="middle" fill="#4a5568">4</text>
<line x1="777.7" y1="78" x2="777.7" y2="378" stroke="#e2e8f0" stroke-width="1"/>
<text x="777.7" y="96" font-size="13" text-anchor="middle" fill="#4a5568">5</text>
<line x1="899.2" y1="78" x2="899.2" y2="378" stroke="#e2e8f0" stroke-width="1"/>
<text x="899.2" y="96" font-size="13" text-anchor="middle" fill="#4a5568">6</text>
<line x1="1020.8" y1="78" x2="1020.8" y2="378" stroke="#e2e8f0" stroke-width="1"/>
<text x="1020.8" y="96" font-size="13" text-anchor="middle" fill="#4a5568">7</text>
<line x1="1142.3" y1="78" x2="1142.3" y2="378" stroke="#e2e8f0" stroke-width="1"/>
<text x="1142.3" y="96" font-size="13" text-anchor="middle" fill="#4a5568">8</text>
<line x1="1263.8" y1="78" x2="1263.8" y2="378" stroke="#e2e8f0" stroke-width="1"/>
<text x="1263.8" y="96" font-size="13" text-anchor="middle" fill="#4a5568">9</text>
<line x1="1385.4" y1="78" x2="1385.4" y2="378" stroke="#e2e8f0" stroke-width="1"/>
<text x="1385.4" y="96" font-size="13" text-anchor="middle" fill="#4a5568">10</text>
<line x1="1506.9" y1="78" x2="1506.9" y2="378" stroke="#e2e8f0" stroke-width="1"/>
<text x="1506.9" y="96" font-size="13" text-anchor="middle" fill="#4a5568">11</text>
<line x1="1628.5" y1="78" x2="1628.5" y2="378" stroke="#e2e8f0" stroke-width="1"/>
<text x="1628.5" y="96" font-size="13" text-anchor="middle" fill="#4a5568">12</text>
<line x1="1750.0" y1="78" x2="1750.0" y2="378" stroke="#e2e8f0" stroke-width="1"/>
<text x="1750.0" y="96" font-size="13" text-anchor="middle" fill="#4a5568">13</text>
<text x="34" y="135" font-size="18" font-family="Inter,Arial" fill="#27364a">m1</text>
<line x1="170" y1="142" x2="1750" y2="142" stroke="#cbd5e1" stroke-width="1"/>
<text x="34" y="209" font-size="18" font-family="Inter,Arial" fill="#27364a">m2</text>
<line x1="170" y1="216" x2="1750" y2="216" stroke="#cbd5e1" stroke-width="1"/>
<text x="34" y="283" font-size="18" font-family="Inter,Arial" fill="#27364a">m4</text>
<line x1="170" y1="290" x2="1750" y2="290" stroke="#cbd5e1" stroke-width="1"/>
<rect x="170.0" y="110" width="117.5" height="42" rx="6" fill="#2b6cb0"/>
<text x="228.8" y="135" font-size="15" text-anchor="middle" fill="white" font-family="Inter,Arial">m1.0</text>
<text x="170.0" y="168" font-size="12" fill="#334155" font-family="Inter,Arial">vdivu.vv v2, v0, v1</text>
<rect x="291.5" y="110" width="117.5" height="42" rx="6" fill="#2b6cb0"/>
<text x="350.3" y="135" font-size="15" text-anchor="middle" fill="white" font-family="Inter,Arial">m1.1</text>
<text x="291.5" y="168" font-size="12" fill="#334155" font-family="Inter,Arial">vdivu.vv v3, v0, v1</text>
<rect x="413.1" y="110" width="117.5" height="42" rx="6" fill="#2b6cb0"/>
<text x="471.8" y="135" font-size="15" text-anchor="middle" fill="white" font-family="Inter,Arial">m1.2</text>
<text x="413.1" y="168" font-size="12" fill="#334155" font-family="Inter,Arial">vdivu.vv v4, v0, v1</text>
<rect x="534.6" y="110" width="117.5" height="42" rx="6" fill="#2b6cb0"/>
<text x="593.4" y="135" font-size="15" text-anchor="middle" fill="white" font-family="Inter,Arial">m1.3</text>
<text x="534.6" y="168" font-size="12" fill="#334155" font-family="Inter,Arial">vdivu.vv v5, v0, v1</text>
<rect x="170.0" y="184" width="117.5" height="42" rx="6" fill="#2b6cb0"/>
<text x="228.8" y="209" font-size="15" text-anchor="middle" fill="white" font-family="Inter,Arial">m2.0</text>
<text x="170.0" y="242" font-size="12" fill="#334155" font-family="Inter,Arial">vdivu.vv v4, v0, v2</text>
<rect x="413.1" y="184" width="117.5" height="42" rx="6" fill="#2b6cb0"/>
<text x="471.8" y="209" font-size="15" text-anchor="middle" fill="white" font-family="Inter,Arial">m2.1</text>
<text x="413.1" y="242" font-size="12" fill="#334155" font-family="Inter,Arial">vdivu.vv v6, v0, v2</text>
<rect x="656.2" y="184" width="117.5" height="42" rx="6" fill="#2b6cb0"/>
<text x="714.9" y="209" font-size="15" text-anchor="middle" fill="white" font-family="Inter,Arial">m2.2</text>
<text x="656.2" y="242" font-size="12" fill="#334155" font-family="Inter,Arial">vdivu.vv v8, v0, v2</text>
<rect x="899.2" y="184" width="117.5" height="42" rx="6" fill="#2b6cb0"/>
<text x="958.0" y="209" font-size="15" text-anchor="middle" fill="white" font-family="Inter,Arial">m2.3</text>
<text x="899.2" y="242" font-size="12" fill="#334155" font-family="Inter,Arial">vdivu.vv v10, v0, v2</text>
<rect x="170.0" y="258" width="117.5" height="42" rx="6" fill="#2b6cb0"/>
<text x="228.8" y="283" font-size="15" text-anchor="middle" fill="white" font-family="Inter,Arial">m4.0</text>
<text x="170.0" y="316" font-size="12" fill="#334155" font-family="Inter,Arial">vdivu.vv v8, v0, v4</text>
<rect x="656.2" y="258" width="117.5" height="42" rx="6" fill="#2b6cb0"/>
<text x="714.9" y="283" font-size="15" text-anchor="middle" fill="white" font-family="Inter,Arial">m4.1</text>
<text x="656.2" y="316" font-size="12" fill="#334155" font-family="Inter,Arial">vdivu.vv v12, v0, v4</text>
<rect x="1142.3" y="258" width="117.5" height="42" rx="6" fill="#2b6cb0"/>
<text x="1201.1" y="283" font-size="15" text-anchor="middle" fill="white" font-family="Inter,Arial">m4.2</text>
<text x="1142.3" y="316" font-size="12" fill="#334155" font-family="Inter,Arial">vdivu.vv v16, v0, v4</text>
<rect x="1628.5" y="258" width="117.5" height="42" rx="6" fill="#2b6cb0"/>
<text x="1687.2" y="283" font-size="15" text-anchor="middle" fill="white" font-family="Inter,Arial">m4.3</text>
<text x="1628.5" y="316" font-size="12" fill="#334155" font-family="Inter,Arial">vdivu.vv v20, v0, v4</text>
<text x="34" y="382" font-size="16" font-family="Inter,Arial" fill="#334155">Macro issue distance grows with LMUL.</text>
<text x="34" y="406" font-size="16" font-family="Inter,Arial" fill="#334155">Latency remains 4; ReleaseAtCycles follows 0 + 1 * LMUL.</text>
</svg>
