<svg xmlns="http://www.w3.org/2000/svg" width="1320" height="360" viewBox="0 0 1320 360">
<rect width="100%" height="100%" fill="#f8fafc"/>
<text x="34" y="48" font-size="28" font-family="Inter,Arial" font-weight="700" fill="#172033">T20 pairwise classification: ProcResource = YuShuXinVPipe0</text>
<line x1="170.0" y1="78" x2="170.0" y2="280" stroke="#e2e8f0" stroke-width="1"/>
<text x="170.0" y="96" font-size="13" text-anchor="middle" fill="#4a5568">0</text>
<line x1="307.5" y1="78" x2="307.5" y2="280" stroke="#e2e8f0" stroke-width="1"/>
<text x="307.5" y="96" font-size="13" text-anchor="middle" fill="#4a5568">1</text>
<line x1="445.0" y1="78" x2="445.0" y2="280" stroke="#e2e8f0" stroke-width="1"/>
<text x="445.0" y="96" font-size="13" text-anchor="middle" fill="#4a5568">2</text>
<line x1="582.5" y1="78" x2="582.5" y2="280" stroke="#e2e8f0" stroke-width="1"/>
<text x="582.5" y="96" font-size="13" text-anchor="middle" fill="#4a5568">3</text>
<line x1="720.0" y1="78" x2="720.0" y2="280" stroke="#e2e8f0" stroke-width="1"/>
<text x="720.0" y="96" font-size="13" text-anchor="middle" fill="#4a5568">4</text>
<line x1="857.5" y1="78" x2="857.5" y2="280" stroke="#e2e8f0" stroke-width="1"/>
<text x="857.5" y="96" font-size="13" text-anchor="middle" fill="#4a5568">5</text>
<line x1="995.0" y1="78" x2="995.0" y2="280" stroke="#e2e8f0" stroke-width="1"/>
<text x="995.0" y="96" font-size="13" text-anchor="middle" fill="#4a5568">6</text>
<line x1="1132.5" y1="78" x2="1132.5" y2="280" stroke="#e2e8f0" stroke-width="1"/>
<text x="1132.5" y="96" font-size="13" text-anchor="middle" fill="#4a5568">7</text>
<line x1="1270.0" y1="78" x2="1270.0" y2="280" stroke="#e2e8f0" stroke-width="1"/>
<text x="1270.0" y="96" font-size="13" text-anchor="middle" fill="#4a5568">8</text>
<text x="34" y="135" font-size="18" font-family="Inter,Arial" fill="#27364a">pair stream</text>
<line x1="170" y1="142" x2="1270" y2="142" stroke="#cbd5e1" stroke-width="1"/>
<rect x="170.0" y="110" width="133.5" height="42" rx="6" fill="#2b6cb0"/>
<text x="236.8" y="135" font-size="15" text-anchor="middle" fill="white" font-family="Inter,Arial">DIV</text>
<text x="170.0" y="168" font-size="12" fill="#334155" font-family="Inter,Arial">vdivu.vv v2, v0, v1</text>
<rect x="307.5" y="110" width="133.5" height="42" rx="6" fill="#805ad5"/>
<text x="374.2" y="135" font-size="15" text-anchor="middle" fill="white" font-family="Inter,Arial">RED</text>
<text x="307.5" y="168" font-size="12" fill="#334155" font-family="Inter,Arial">vredsum.vs v3, v0, v1</text>
<rect x="445.0" y="110" width="133.5" height="42" rx="6" fill="#2b6cb0"/>
<text x="511.8" y="135" font-size="15" text-anchor="middle" fill="white" font-family="Inter,Arial">DIV</text>
<text x="445.0" y="168" font-size="12" fill="#334155" font-family="Inter,Arial">vdivu.vv v4, v0, v1</text>
<rect x="582.5" y="110" width="133.5" height="42" rx="6" fill="#805ad5"/>
<text x="649.2" y="135" font-size="15" text-anchor="middle" fill="white" font-family="Inter,Arial">RED</text>
<text x="582.5" y="168" font-size="12" fill="#334155" font-family="Inter,Arial">vredsum.vs v5, v0, v1</text>
<rect x="720.0" y="110" width="133.5" height="42" rx="6" fill="#2b6cb0"/>
<text x="786.8" y="135" font-size="15" text-anchor="middle" fill="white" font-family="Inter,Arial">DIV</text>
<text x="720.0" y="168" font-size="12" fill="#334155" font-family="Inter,Arial">vdivu.vv v6, v0, v1</text>
<rect x="857.5" y="110" width="133.5" height="42" rx="6" fill="#805ad5"/>
<text x="924.2" y="135" font-size="15" text-anchor="middle" fill="white" font-family="Inter,Arial">RED</text>
<text x="857.5" y="168" font-size="12" fill="#334155" font-family="Inter,Arial">vredsum.vs v7, v0, v1</text>
<rect x="995.0" y="110" width="133.5" height="42" rx="6" fill="#2b6cb0"/>
<text x="1061.8" y="135" font-size="15" text-anchor="middle" fill="white" font-family="Inter,Arial">DIV</text>
<text x="995.0" y="168" font-size="12" fill="#334155" font-family="Inter,Arial">vdivu.vv v8, v0, v1</text>
<rect x="1132.5" y="110" width="133.5" height="42" rx="6" fill="#805ad5"/>
<text x="1199.2" y="135" font-size="15" text-anchor="middle" fill="white" font-family="Inter,Arial">RED</text>
<text x="1132.5" y="168" font-size="12" fill="#334155" font-family="Inter,Arial">vredsum.vs v9, v0, v1</text>
<text x="34" y="284" font-size="16" font-family="Inter,Arial" fill="#334155">Global solving has a pipe0/pipe1 mirror symmetry.</text>
<text x="34" y="308" font-size="16" font-family="Inter,Arial" fill="#334155">The report canonicalizes vdivu.vv to YuShuXinVPipe0.</text>
</svg>
